{
    "accessors" : [
        {
            "bufferView" : 0, 
            "componentType" : 5123, 
            "count" : 9480, 
            "max" : [
                5905
            ], 
            "min" : [
                0
            ], 
            "type" : "SCALAR"
        }, 
        {
            "bufferView" : 1, 
            "componentType" : 5126, 
            "count" : 5906, 
            "max" : [
                1.8992509841918945, 
                0.7571545839309692, 
                1.8992509841918945
            ], 
            "min" : [
                -1.8992509841918945, 
                -0.05449328571557999, 
                -1.8992509841918945
            ], 
            "type" : "VEC3"
        }, 
        {
            "bufferView" : 2, 
            "componentType" : 5126, 
            "count" : 5906, 
            "max" : [
                1.0, 
                1.0, 
                1.0
            ], 
            "min" : [
                -1.0, 
                -1.0, 
                -1.0
            ], 
            "type" : "VEC3"
        }, 
        {
            "bufferView" : 3, 
            "componentType" : 5126, 
            "count" : 5906, 
            "max" : [
                0.9251974821090698, 
                1.0
            ], 
            "min" : [
                0.0, 
                0.06951367855072021
            ], 
            "type" : "VEC2"
        }
    ], 
    "asset" : {
        "generator" : "Khronos Blender glTF 2.0 exporter", 
        "version" : "2.0"
    }, 
    "bufferViews" : [
        {
            "buffer" : 0, 
            "byteLength" : 18960, 
            "byteOffset" : 0, 
            "target" : 34963
        }, 
        {
            "buffer" : 0, 
            "byteLength" : 70872, 
            "byteOffset" : 18960, 
            "target" : 34962
        }, 
        {
            "buffer" : 0, 
            "byteLength" : 70872, 
            "byteOffset" : 89832, 
            "target" : 34962
        }, 
        {
            "buffer" : 0, 
            "byteLength" : 47248, 
            "byteOffset" : 160704, 
            "target" : 34962
        }
    ], 
    "buffers" : [
        {
            "byteLength" : 207952, 
            "uri" : "data:application/octet-stream;base64,"
        }
    ], 
    "images" : [
        {
            "uri" : "data:image/png;base64,"
        }
    ], 
    "materials" : [
        {
            "name" : "Mat_SceneSimon", 
            "pbrMetallicRoughness" : {
                "baseColorFactor" : [
                    0.6400000190734865, 
                    0.6400000190734865, 
                    0.6400000190734865, 
                    1.0
                ], 
                "baseColorTexture" : {
                    "index" : 0
                }, 
                "metallicFactor" : 0.0
            }
        }
    ], 
    "meshes" : [
        {
            "name" : "Circle", 
            "primitives" : [
                {
                    "attributes" : {
                        "NORMAL" : 2, 
                        "POSITION" : 1, 
                        "TEXCOORD_0" : 3
                    }, 
                    "indices" : 0, 
                    "material" : 0
                }
            ]
        }
    ], 
    "nodes" : [
        {
            "mesh" : 0, 
            "name" : "Circle", 
            "scale" : [
                2.6326167583465576, 
                2.6326167583465576, 
                2.6326167583465576
            ], 
            "translation" : [
                0.0, 
                0.0921328142285347, 
                -0.0
            ]
        }
    ], 
    "samplers" : [
        {}
    ], 
    "scene" : 0, 
    "scenes" : [
        {
            "name" : "Scene", 
            "nodes" : [
                0
            ]
        }
    ], 
    "textures" : [
        {
            "sampler" : 0, 
            "source" : 0
        }
    ]
}
