{
  "accessors": [
    {
      "bufferView": 0,
      "componentType": 5123,
      "count": 660,
      "max": [423],
      "min": [0],
      "type": "SCALAR"
    },
    {
      "bufferView": 1,
      "componentType": 5126,
      "count": 424,
      "max": [3.775022029876709, 0.25019240379333496, 3.775022029876709],
      "min": [-3.775022029876709, -0.48287755250930786, -3.775022029876709],
      "type": "VEC3"
    },
    {
      "bufferView": 2,
      "componentType": 5126,
      "count": 424,
      "max": [1.0, 1.0, 1.0],
      "min": [-1.0, -1.0, -1.0],
      "type": "VEC3"
    },
    {
      "bufferView": 3,
      "componentType": 5126,
      "count": 424,
      "max": [0.8282297849655151, 0.9492648541927338],
      "min": [0.05234256386756897, 0.04984867572784424],
      "type": "VEC2"
    }
  ],
  "asset": {
    "generator": "Khronos Blender glTF 2.0 exporter",
    "version": "2.0"
  },
  "bufferViews": [
    {
      "buffer": 0,
      "byteLength": 1320,
      "byteOffset": 0,
      "target": 34963
    },
    {
      "buffer": 0,
      "byteLength": 5088,
      "byteOffset": 1320,
      "target": 34962
    },
    {
      "buffer": 0,
      "byteLength": 5088,
      "byteOffset": 6408,
      "target": 34962
    },
    {
      "buffer": 0,
      "byteLength": 3392,
      "byteOffset": 11496,
      "target": 34962
    }
  ],
  "buffers": [
    {
      "byteLength": 14888,
      "uri":
        "data:application/octet-stream;base64,"
    }
  ],
  "images": [
    {
      "uri":
        "data:image/png;base64,"
    }
  ],
  "materials": [
    {
      "name": "Material",
      "pbrMetallicRoughness": {
        "baseColorFactor": [
          0.6400000190734865,
          0.6400000190734865,
          0.6400000190734865,
          1.0
        ],
        "baseColorTexture": {
          "index": 0
        },
        "metallicFactor": 0.0
      }
    }
  ],
  "meshes": [
    {
      "name": "Circle.001",
      "primitives": [
        {
          "attributes": {
            "NORMAL": 2,
            "POSITION": 1,
            "TEXCOORD_0": 3
          },
          "indices": 0,
          "material": 0
        }
      ]
    }
  ],
  "nodes": [
    {
      "mesh": 0,
      "name": "Circle",
      "scale": [0.7920483350753784, 0.7920483350753784, 0.7920483350753784],
      "translation": [0.0, 0.06752926111221313, -0.0]
    }
  ],
  "samplers": [{}],
  "scene": 0,
  "scenes": [
    {
      "name": "Scene",
      "nodes": [0]
    }
  ],
  "textures": [
    {
      "sampler": 0,
      "source": 0
    }
  ]
}
